<svg xmlns="http://www.w3.org/2000/svg" width="1008" height="720" viewBox="0 0 1008 720" role="img" aria-label="What the relational store holds">
<title>What the relational store holds</title>
<defs><marker id="aB3261E" viewBox="0 0 10 10" refX="9" refY="5" markerWidth="7" markerHeight="7" orient="auto-start-reverse"><path d="M 0 1 L 9 5 L 0 9 z" fill="#B3261E" /></marker><marker id="a2E7D46" viewBox="0 0 10 10" refX="9" refY="5" markerWidth="7" markerHeight="7" orient="auto-start-reverse"><path d="M 0 1 L 9 5 L 0 9 z" fill="#2E7D46" /></marker><marker id="a1F2328" viewBox="0 0 10 10" refX="9" refY="5" markerWidth="7" markerHeight="7" orient="auto-start-reverse"><path d="M 0 1 L 9 5 L 0 9 z" fill="#1F2328" /></marker><marker id="a57606A" viewBox="0 0 10 10" refX="9" refY="5" markerWidth="7" markerHeight="7" orient="auto-start-reverse"><path d="M 0 1 L 9 5 L 0 9 z" fill="#57606A" /></marker></defs>
<rect width="1008" height="720" fill="#FFFFFF" />
<g transform="translate(-36,-36)">
<rect x="400" y="240" width="280" height="72" rx="8" fill="#E8F0FE" stroke="#3B5BA5" stroke-width="1.4" /><text x="540.0" y="273.0" text-anchor="middle" font-family="Helvetica, Arial, sans-serif" font-size="12" font-weight="600" fill="#1F2328">mail_accounts</text><text x="540.0" y="287.5" text-anchor="middle" font-family="Helvetica, Arial, sans-serif" font-size="10" font-weight="400" fill="#57606A">provider · address · enabled · status</text>
<rect x="60" y="60" width="250" height="64" rx="8" fill="#FCE8E6" stroke="#B3261E" stroke-width="1.4" /><text x="185.0" y="89.0" text-anchor="middle" font-family="Helvetica, Arial, sans-serif" font-size="12" font-weight="600" fill="#1F2328">mail_credentials</text><text x="185.0" y="103.5" text-anchor="middle" font-family="Helvetica, Arial, sans-serif" font-size="10" font-weight="400" fill="#57606A">kind · secret (encrypted, opaque)</text>
<rect x="770" y="60" width="250" height="64" rx="8" fill="#E6F4EA" stroke="#2E7D46" stroke-width="1.4" /><text x="895.0" y="89.0" text-anchor="middle" font-family="Helvetica, Arial, sans-serif" font-size="12" font-weight="600" fill="#1F2328">mail_sync_jobs</text><text x="895.0" y="103.5" text-anchor="middle" font-family="Helvetica, Arial, sans-serif" font-size="10" font-weight="400" fill="#57606A">kind · state · lease · counters</text>
<rect x="60" y="430" width="250" height="64" rx="8" fill="#E6F4EA" stroke="#2E7D46" stroke-width="1.4" /><text x="185.0" y="459.0" text-anchor="middle" font-family="Helvetica, Arial, sans-serif" font-size="12" font-weight="600" fill="#1F2328">mail_sync_checkpoints</text><text x="185.0" y="473.5" text-anchor="middle" font-family="Helvetica, Arial, sans-serif" font-size="10" font-weight="400" fill="#57606A">scope · cursor · messages_seen</text>
<rect x="770" y="430" width="250" height="64" rx="8" fill="#E0F7FA" stroke="#00707F" stroke-width="1.4" /><text x="895.0" y="459.0" text-anchor="middle" font-family="Helvetica, Arial, sans-serif" font-size="12" font-weight="600" fill="#1F2328">mail_archived_messages</text><text x="895.0" y="473.5" text-anchor="middle" font-family="Helvetica, Arial, sans-serif" font-size="10" font-weight="400" fill="#57606A">provider id → canonical id</text>
<rect x="400" y="560" width="280" height="64" rx="8" fill="#F1F3F4" stroke="#5F6368" stroke-width="1.4" /><text x="540.0" y="589.0" text-anchor="middle" font-family="Helvetica, Arial, sans-serif" font-size="12" font-weight="600" fill="#1F2328">mail_failed_messages</text><text x="540.0" y="603.5" text-anchor="middle" font-family="Helvetica, Arial, sans-serif" font-size="10" font-weight="400" fill="#57606A">provider id · reason · detail</text>
<rect x="180" y="670" width="620" height="62" rx="8" fill="#FFFDE7" stroke="#C9A227" stroke-width="1.4" /><text x="490.0" y="698.0" text-anchor="middle" font-family="Helvetica, Arial, sans-serif" font-size="12" font-weight="400" fill="#1F2328">Rebuildable, not authoritative</text><text x="490.0" y="712.5" text-anchor="middle" font-family="Helvetica, Arial, sans-serif" font-size="10" font-weight="400" fill="#57606A">mail_archived_messages is a read model over the graph — the batch IN (…) the graph cannot answer cheaply.</text>
<path d="M 310.0 92.0 L 324.0 92.0 L 355.0 92.0 L 355.0 258.0 L 386.0 258.0 L 400.0 258.0" fill="none" stroke="#57606A" stroke-width="1.4" marker-end="url(#a57606A)" /><rect x="323.0" y="166.0" width="64.0" height="15" rx="3" fill="#FFFFFF" fill-opacity="0.95" /><text x="355.0" y="177.0" text-anchor="middle" font-family="Helvetica, Arial, sans-serif" font-size="10.5" fill="#57606A">account_id</text>
<path d="M 770.0 92.0 L 756.0 92.0 L 725.0 92.0 L 725.0 258.0 L 694.0 258.0 L 680.0 258.0" fill="none" stroke="#57606A" stroke-width="1.4" marker-end="url(#a57606A)" /><rect x="693.0" y="166.0" width="64.0" height="15" rx="3" fill="#FFFFFF" fill-opacity="0.95" /><text x="725.0" y="177.0" text-anchor="middle" font-family="Helvetica, Arial, sans-serif" font-size="10.5" fill="#57606A">account_id</text>
<path d="M 310.0 462.0 L 324.0 462.0 L 355.0 462.0 L 355.0 294.0 L 386.0 294.0 L 400.0 294.0" fill="none" stroke="#57606A" stroke-width="1.4" marker-end="url(#a57606A)" /><rect x="323.0" y="369.0" width="64.0" height="15" rx="3" fill="#FFFFFF" fill-opacity="0.95" /><text x="355.0" y="380.0" text-anchor="middle" font-family="Helvetica, Arial, sans-serif" font-size="10.5" fill="#57606A">account_id</text>
<path d="M 770.0 462.0 L 756.0 462.0 L 725.0 462.0 L 725.0 294.0 L 694.0 294.0 L 680.0 294.0" fill="none" stroke="#57606A" stroke-width="1.4" marker-end="url(#a57606A)" /><rect x="693.0" y="369.0" width="64.0" height="15" rx="3" fill="#FFFFFF" fill-opacity="0.95" /><text x="725.0" y="380.0" text-anchor="middle" font-family="Helvetica, Arial, sans-serif" font-size="10.5" fill="#57606A">account_id</text>
<path d="M 540.0 560.0 L 540.0 546.0 L 540.0 436.0 L 540.0 326.0 L 540.0 312.0" fill="none" stroke="#57606A" stroke-width="1.4" marker-end="url(#a57606A)" /><rect x="508.0" y="427.0" width="64.0" height="15" rx="3" fill="#FFFFFF" fill-opacity="0.95" /><text x="540.0" y="438.0" text-anchor="middle" font-family="Helvetica, Arial, sans-serif" font-size="10.5" fill="#57606A">account_id</text>
<path d="M 895.0 494.0 L 895.0 508.0 L 895.0 701.0 L 814.0 701.0 L 800.0 701.0" fill="none" stroke="#57606A" stroke-width="1.4" stroke-dasharray="5 4" />
</g></svg>
